<svg xmlns="http://www.w3.org/2000/svg" viewBox="0 0 64 64" aria-labelledby="title"
aria-describedby="desc" role="img" xmlns:xlink="http://www.w3.org/1999/xlink">
  <title>Birthday Cake</title>
  <desc>A line styled icon from Orion Icon Library.</desc>
  <path data-name="layer2"
  d="M6 59.998V29.996a2 2 0 0 1 2-2h48a2 2 0 0 1 2 2v30.002" fill="none"
  stroke="#ffffff" stroke-linecap="round" stroke-miterlimit="10" stroke-width="2"
  stroke-linejoin="round"></path>
  <path data-name="layer1" fill="none" stroke="#ffffff" stroke-linecap="round"
  stroke-miterlimit="10" stroke-width="2" d="M2 59.995h59.998" stroke-linejoin="round"></path>
  <path data-name="layer2" d="M5.998 34.998a7.001 7.001 0 0 0 7 7c3.867 0 7-2.133 7-6m.002 0c0 3.867 3.135 6 7 6 3.867 0 7-2.133 7-6m0 0c0 3.867 3.135 6 7 6 3.867 0 7-2.133 7-6m0 0c0 3.867 3.135 6 7 6a6.974 6.974 0 0 0 3.002-.676M31.998 17.998v9.998m-16.002-9.998v9.998M48 17.998v9.998"
  fill="none" stroke="#ffffff" stroke-linecap="round" stroke-miterlimit="10"
  stroke-width="2" stroke-linejoin="round"></path>
  <path data-name="layer1" d="M18.996 8.998a7.341 7.341 0 0 0-3-5.998s-3 2.679-3 5.998a2.993 2.993 0 0 0 5.86.867 2.594 2.594 0 0 0 .14-.867zm16.002 0a7.341 7.341 0 0 0-3-5.998s-3 2.679-3 5.998a2.993 2.993 0 0 0 5.86.867 2.597 2.597 0 0 0 .14-.867zm16.002 0A7.341 7.341 0 0 0 48 3s-3 2.679-3 5.998a2.993 2.993 0 0 0 5.86.867 2.594 2.594 0 0 0 .14-.867z"
  fill="none" stroke="#ffffff" stroke-linecap="round" stroke-miterlimit="10"
  stroke-width="2" stroke-linejoin="round"></path>
</svg>